<svg version="1.1" id="Layer_1" xmlns="http://www.w3.org/2000/svg" xmlns:xlink="http://www.w3.org/1999/xlink" x="0px" y="0px"
	 width="100%" viewBox="0 0 550 543" enable-background="new 0 0 550 543" xml:space="preserve">
<path fill="#47704C" opacity="1.000000" stroke="none" 
	d="
M213.000000,1.000000 
	C325.614777,1.000000 438.229584,1.000000 550.922180,1.000000 
	C550.922180,181.999985 550.922180,363.000000 550.922180,544.000000 
	C529.249146,544.000000 507.592438,544.000000 485.791748,543.795166 
	C509.440460,539.423523 527.635986,527.509766 538.304077,505.326996 
	C550.695068,479.561493 545.440369,448.945496 525.255615,428.757080 
	C496.151245,399.647400 466.845581,370.735260 438.023224,341.349060 
	C424.787476,327.854370 409.216248,319.127014 390.538696,321.287933 
	C375.618469,323.014160 366.604645,316.871063 357.959076,306.696472 
	C354.876862,303.069153 354.082825,300.786499 356.831818,296.489868 
	C371.563446,273.464447 380.951965,248.242661 384.945557,221.271652 
	C387.602814,203.326187 387.620361,185.211639 385.058136,167.095047 
	C381.801331,144.067505 374.788666,122.282562 363.772095,101.939819 
	C351.290344,78.891663 334.838745,58.939655 314.131744,42.661232 
	C291.553741,24.911966 266.460266,12.303272 238.406433,5.884756 
	C230.004883,3.962543 221.472458,2.612290 213.000000,1.000000 
z"/>
<path fill="#47704C" opacity="1.000000" stroke="none" 
	d="
M469.000000,544.000000 
	C313.083984,544.000000 157.167984,544.000000 1.000000,544.000000 
	C1.000000,433.976807 1.000000,323.953400 1.183192,213.816895 
	C4.289450,226.809280 6.287055,240.206345 10.306877,252.966354 
	C23.017851,293.314392 47.228436,325.616394 81.524086,350.224884 
	C106.249939,367.966675 133.836807,378.982330 163.930206,383.774658 
	C191.797501,388.212463 219.227356,386.149078 246.349930,378.751831 
	C262.342377,374.390198 277.219879,367.364655 291.699341,359.465546 
	C294.208557,358.096619 296.029053,357.441345 298.277527,359.750183 
	C304.320221,365.955017 310.527252,371.999756 316.576080,378.198761 
	C317.435883,379.079834 318.162750,380.424683 318.289764,381.624847 
	C318.689667,385.404449 318.670715,389.226410 318.999695,393.015869 
	C320.298035,407.971344 325.953461,421.192444 336.452271,431.816772 
	C367.458160,463.193451 398.685791,494.353027 430.061340,525.360107 
	C434.355194,529.603516 439.604523,533.332031 445.084015,535.814636 
	C452.723907,539.276123 460.997559,541.338745 469.000000,544.000000 
z"/>
<path fill="#333333" opacity="1.000000" stroke="none" 
	d="
M469.466858,544.000000 
	C460.997559,541.338745 452.723907,539.276123 445.084015,535.814636 
	C439.604523,533.332031 434.355194,529.603516 430.061340,525.360107 
	C398.685791,494.353027 367.458160,463.193451 336.452271,431.816772 
	C325.953461,421.192444 320.298035,407.971344 318.999695,393.015869 
	C318.670715,389.226410 318.689667,385.404449 318.289764,381.624847 
	C318.162750,380.424683 317.435883,379.079834 316.576080,378.198761 
	C310.527252,371.999756 304.320221,365.955017 298.277527,359.750183 
	C296.029053,357.441345 294.208557,358.096619 291.699341,359.465546 
	C277.219879,367.364655 262.342377,374.390198 246.349930,378.751831 
	C219.227356,386.149078 191.797501,388.212463 163.930206,383.774658 
	C133.836807,378.982330 106.249939,367.966675 81.524086,350.224884 
	C47.228436,325.616394 23.017851,293.314392 10.306877,252.966354 
	C6.287055,240.206345 4.289450,226.809280 1.183192,213.351868 
	C1.000000,200.312439 1.000000,187.624878 1.183205,174.116760 
	C2.940933,164.294052 3.860482,155.117279 6.205370,146.320465 
	C15.483287,111.514366 32.449467,81.138542 58.507877,55.855076 
	C83.214554,31.883129 111.856560,15.192058 145.229828,6.819731 
	C154.709900,4.441466 164.404037,2.916362 174.000000,1.000001 
	C186.687561,1.000000 199.375122,1.000000 212.531342,1.000000 
	C221.472458,2.612290 230.004883,3.962543 238.406433,5.884756 
	C266.460266,12.303272 291.553741,24.911966 314.131744,42.661232 
	C334.838745,58.939655 351.290344,78.891663 363.772095,101.939819 
	C374.788666,122.282562 381.801331,144.067505 385.058136,167.095047 
	C387.620361,185.211639 387.602814,203.326187 384.945557,221.271652 
	C380.951965,248.242661 371.563446,273.464447 356.831818,296.489868 
	C354.082825,300.786499 354.876862,303.069153 357.959076,306.696472 
	C366.604645,316.871063 375.618469,323.014160 390.538696,321.287933 
	C409.216248,319.127014 424.787476,327.854370 438.023224,341.349060 
	C466.845581,370.735260 496.151245,399.647400 525.255615,428.757080 
	C545.440369,448.945496 550.695068,479.561493 538.304077,505.326996 
	C527.635986,527.509766 509.440460,539.423523 485.323914,543.795166 
	C479.977905,544.000000 474.955811,544.000000 469.466858,544.000000 
M315.491455,343.436615 
	C315.202850,347.322968 321.603210,354.817200 325.232452,354.367950 
	C326.252472,354.241669 327.027283,352.134949 328.285736,350.374969 
	C332.474060,345.728729 336.226715,340.569885 340.951172,336.554413 
	C348.336853,330.277008 348.676270,329.459229 340.769684,323.494904 
	C339.773773,322.743652 337.114807,322.706512 336.270996,323.479218 
	C329.320190,329.844208 322.616364,336.478821 315.491455,343.436615 
M214.041809,25.276838 
	C198.944214,23.663704 183.888153,23.730576 168.837036,25.994715 
	C131.708893,31.579901 99.802734,47.820869 73.465813,74.276779 
	C52.593353,95.243553 38.096012,120.162590 30.251259,149.045578 
	C22.378197,178.032837 21.966427,206.940369 29.599360,235.744003 
	C41.152866,279.342316 66.449738,313.364532 104.769958,337.024933 
	C149.320145,364.531891 197.181900,369.662598 246.776505,353.717468 
	C283.045288,342.056732 311.875397,319.704346 333.573303,288.173676 
	C351.409637,262.254486 360.942719,233.510574 362.829041,202.345718 
	C364.463531,175.341843 359.232544,149.426224 348.237885,124.613594 
	C334.771271,94.222252 313.875641,69.948097 286.478119,51.748707 
	C264.933350,37.437141 240.849869,28.580711 214.041809,25.276838 
M479.374542,519.996033 
	C481.204254,519.911682 483.087982,520.080627 484.855194,519.703430 
	C500.659180,516.330627 512.061401,507.306091 517.954895,492.244507 
	C524.167419,476.367523 521.858948,461.318817 510.739563,448.304047 
	C504.071869,440.499817 496.528900,433.430969 489.236481,426.175201 
	C464.920319,401.981232 440.544769,377.846985 416.168060,353.714020 
	C414.994537,352.552246 413.693451,351.452576 412.281677,350.608551 
	C396.459167,341.149750 380.506805,342.291779 364.794861,350.652283 
	C340.301392,363.685547 335.476044,396.961853 355.056793,416.551422 
	C384.865021,446.373077 414.691071,476.176941 444.495178,506.002716 
	C453.872009,515.386414 464.787720,520.975037 479.374542,519.996033 
z"/>
<path fill="#47704C" opacity="1.000000" stroke="none" 
	d="
M173.531342,1.000001 
	C164.404037,2.916362 154.709900,4.441466 145.229828,6.819731 
	C111.856560,15.192058 83.214554,31.883129 58.507877,55.855076 
	C32.449467,81.138542 15.483287,111.514366 6.205370,146.320465 
	C3.860482,155.117279 2.940933,164.294052 1.183205,173.648102 
	C1.000000,116.406319 1.000000,58.812630 1.000000,1.000000 
	C58.354042,1.000000 115.708359,1.000000 173.531342,1.000001 
z"/>
<path fill="#47704C" opacity="1.000000" stroke="none" 
	d="
M214.481262,25.378756 
	C240.849869,28.580711 264.933350,37.437141 286.478119,51.748707 
	C313.875641,69.948097 334.771271,94.222252 348.237885,124.613594 
	C359.232544,149.426224 364.463531,175.341843 362.829041,202.345718 
	C360.942719,233.510574 351.409637,262.254486 333.573303,288.173676 
	C311.875397,319.704346 283.045288,342.056732 246.776505,353.717468 
	C197.181900,369.662598 149.320145,364.531891 104.769958,337.024933 
	C66.449738,313.364532 41.152866,279.342316 29.599360,235.744003 
	C21.966427,206.940369 22.378197,178.032837 30.251259,149.045578 
	C38.096012,120.162590 52.593353,95.243553 73.465813,74.276779 
	C99.802734,47.820869 131.708893,31.579901 168.837036,25.994715 
	C183.888153,23.730576 198.944214,23.663704 214.481262,25.378756 
M46.168404,206.422775 
	C46.423889,207.896774 46.764519,209.361710 46.922218,210.846100 
	C49.790756,237.847412 59.673603,262.218597 76.296059,283.437744 
	C96.433250,309.143555 122.349434,326.885681 154.115707,335.580505 
	C180.027588,342.672974 205.971817,342.951538 231.931335,335.940216 
	C262.615692,327.652863 288.061676,311.185699 308.068298,286.501434 
	C336.200165,251.792328 346.271149,212.142319 339.054474,168.263184 
	C332.902222,130.856003 314.229797,100.582199 284.536194,77.154755 
	C261.002960,58.587685 234.090790,48.127918 204.259888,46.171139 
	C174.177765,44.197884 145.725784,50.395046 119.456818,65.740471 
	C92.622849,81.415939 72.538109,103.415123 59.300816,131.292862 
	C48.193047,154.685837 44.258892,179.710876 46.168404,206.422775 
z"/>
<path fill="#47704C" opacity="1.000000" stroke="none" 
	d="
M478.899780,519.997192 
	C464.787720,520.975037 453.872009,515.386414 444.495178,506.002716 
	C414.691071,476.176941 384.865021,446.373077 355.056793,416.551422 
	C335.476044,396.961853 340.301392,363.685547 364.794861,350.652283 
	C380.506805,342.291779 396.459167,341.149750 412.281677,350.608551 
	C413.693451,351.452576 414.994537,352.552246 416.168060,353.714020 
	C440.544769,377.846985 464.920319,401.981232 489.236481,426.175201 
	C496.528900,433.430969 504.071869,440.499817 510.739563,448.304047 
	C521.858948,461.318817 524.167419,476.367523 517.954895,492.244507 
	C512.061401,507.306091 500.659180,516.330627 484.855194,519.703430 
	C483.087982,520.080627 481.204254,519.911682 478.899780,519.997192 
z"/>
<path fill="#47704C" opacity="1.000000" stroke="none" 
	d="
M315.837677,343.031708 
	C322.616364,336.478821 329.320190,329.844208 336.270996,323.479218 
	C337.114807,322.706512 339.773773,322.743652 340.769684,323.494904 
	C348.676270,329.459229 348.336853,330.277008 340.951172,336.554413 
	C336.226715,340.569885 332.474060,345.728729 327.852325,350.852417 
	C325.878967,351.290497 323.761566,351.879700 322.906830,351.094482 
	C320.289978,348.690399 318.158142,345.758392 315.837677,343.031708 
z"/>
<path fill="#333333" opacity="1.000000" stroke="none" 
	d="
M315.664551,343.234161 
	C318.158142,345.758392 320.289978,348.690399 322.906830,351.094482 
	C323.761566,351.879700 325.878967,351.290497 327.666748,351.133240 
	C327.027283,352.134949 326.252472,354.241669 325.232452,354.367950 
	C321.603210,354.817200 315.202850,347.322968 315.664551,343.234161 
z"/>
<path fill="#333333" opacity="1.000000" stroke="none" 
	d="
M46.126976,206.003662 
	C44.258892,179.710876 48.193047,154.685837 59.300816,131.292862 
	C72.538109,103.415123 92.622849,81.415939 119.456818,65.740471 
	C145.725784,50.395046 174.177765,44.197884 204.259888,46.171139 
	C234.090790,48.127918 261.002960,58.587685 284.536194,77.154755 
	C314.229797,100.582199 332.902222,130.856003 339.054474,168.263184 
	C346.271149,212.142319 336.200165,251.792328 308.068298,286.501434 
	C288.061676,311.185699 262.615692,327.652863 231.931335,335.940216 
	C205.971817,342.951538 180.027588,342.672974 154.115707,335.580505 
	C122.349434,326.885681 96.433250,309.143555 76.296059,283.437744 
	C59.673603,262.218597 49.790756,237.847412 46.922218,210.846100 
	C46.764519,209.361710 46.423889,207.896774 46.126976,206.003662 
M280.998413,105.498390 
	C232.267822,57.740074 155.221817,56.454895 105.503082,106.224953 
	C57.057743,154.720306 58.831940,229.667969 102.177689,276.813538 
	C151.108856,330.034149 232.216431,330.160065 281.182617,281.061676 
	C330.830414,231.279892 329.571991,155.137299 280.998413,105.498390 
z"/>
<path fill="#47704C" opacity="1.000000" stroke="none" 
	d="
M281.249817,105.749802 
	C329.571991,155.137299 330.830414,231.279892 281.182617,281.061676 
	C232.216431,330.160065 151.108856,330.034149 102.177689,276.813538 
	C58.831940,229.667969 57.057743,154.720306 105.503082,106.224953 
	C155.221817,56.454895 232.267822,57.740074 281.249817,105.749802 
M162.621582,284.070190 
	C191.372284,284.045898 220.123276,284.087097 248.873520,283.958984 
	C257.964050,283.918488 261.897949,279.805145 261.965118,270.686310 
	C262.052277,258.857239 262.429291,247.006287 261.877014,235.202377 
	C261.114075,218.896332 255.518906,204.325424 243.920197,192.466202 
	C240.002228,188.460236 235.821823,184.710922 231.275055,180.381241 
	C243.651413,168.870056 250.581543,154.682617 250.816574,138.002045 
	C251.052338,121.270782 245.092148,106.378822 232.459076,95.277130 
	C210.267975,75.775993 179.000778,74.888680 158.250824,92.333649 
	C144.672745,103.749046 137.198120,117.966858 136.756485,136.032410 
	C136.316360,154.035538 143.727661,168.412750 156.121613,180.910889 
	C154.089142,182.534622 152.524017,183.756180 150.989716,185.015289 
	C138.052780,195.631836 128.580673,208.901718 126.618675,225.522430 
	C124.755188,241.308655 125.277908,257.402496 125.219994,273.362793 
	C125.197639,279.519592 130.018799,283.698792 136.402206,283.891327 
	C144.875916,284.146881 153.360519,284.040649 162.621582,284.070190 
z"/>
<path fill="#333333" opacity="1.000000" stroke="none" 
	d="
M162.231018,284.080017 
	C153.360519,284.040649 144.875916,284.146881 136.402206,283.891327 
	C130.018799,283.698792 125.197639,279.519592 125.219994,273.362793 
	C125.277908,257.402496 124.755188,241.308655 126.618675,225.522430 
	C128.580673,208.901718 138.052780,195.631836 150.989716,185.015289 
	C152.524017,183.756180 154.089142,182.534622 156.121613,180.910889 
	C143.727661,168.412750 136.316360,154.035538 136.756485,136.032410 
	C137.198120,117.966858 144.672745,103.749046 158.250824,92.333649 
	C179.000778,74.888680 210.267975,75.775993 232.459076,95.277130 
	C245.092148,106.378822 251.052338,121.270782 250.816574,138.002045 
	C250.581543,154.682617 243.651413,168.870056 231.275055,180.381241 
	C235.821823,184.710922 240.002228,188.460236 243.920197,192.466202 
	C255.518906,204.325424 261.114075,218.896332 261.877014,235.202377 
	C262.429291,247.006287 262.052277,258.857239 261.965118,270.686310 
	C261.897949,279.805145 257.964050,283.918488 248.873520,283.958984 
	C220.123276,284.087097 191.372284,284.045898 162.231018,284.080017 
M149.000000,242.529266 
	C149.009140,246.860275 149.105164,251.193359 149.001114,255.521637 
	C148.911102,259.265228 150.462051,261.005646 154.320145,260.997406 
	C180.806046,260.940735 207.292191,260.940063 233.778107,260.993927 
	C237.707947,261.001923 239.151352,259.092590 238.982132,255.423737 
	C238.653030,248.287476 238.634262,241.125610 238.010056,234.016220 
	C235.590714,206.460541 207.641693,187.974777 181.131485,195.733932 
	C163.498367,200.894913 147.538513,218.924957 149.000000,242.529266 
M167.504868,157.929550 
	C181.186615,174.919647 206.182098,172.578751 217.456085,160.239944 
	C228.444687,148.213486 230.298599,129.795242 220.692169,117.760040 
	C209.105164,103.243523 190.413986,99.565392 175.752380,108.823006 
	C163.072678,116.829185 152.841599,137.715302 167.504868,157.929550 
z"/>
<path fill="#47704C" opacity="1.000000" stroke="none" 
	d="
M149.000031,242.036255 
	C147.538513,218.924957 163.498367,200.894913 181.131485,195.733932 
	C207.641693,187.974777 235.590714,206.460541 238.010056,234.016220 
	C238.634262,241.125610 238.653030,248.287476 238.982132,255.423737 
	C239.151352,259.092590 237.707947,261.001923 233.778107,260.993927 
	C207.292191,260.940063 180.806046,260.940735 154.320145,260.997406 
	C150.462051,261.005646 148.911102,259.265228 149.001114,255.521637 
	C149.105164,251.193359 149.009140,246.860275 149.000031,242.036255 
z"/>
<path fill="#47704C" opacity="1.000000" stroke="none" 
	d="
M167.269531,157.657532 
	C152.841599,137.715302 163.072678,116.829185 175.752380,108.823006 
	C190.413986,99.565392 209.105164,103.243523 220.692169,117.760040 
	C230.298599,129.795242 228.444687,148.213486 217.456085,160.239944 
	C206.182098,172.578751 181.186615,174.919647 167.269531,157.657532 
z"/>
</svg>